<?xml version="1.0" encoding="UTF-8"?>
<!DOCTYPE svg PUBLIC "-//W3C//DTD SVG 1.1//EN" "http://www.w3.org/Graphics/SVG/1.1/DTD/svg11.dtd">
<!-- Creator: CorelDRAW 2018 (64-Bit) -->
<svg xmlns="http://www.w3.org/2000/svg" xml:space="preserve" width="75px" height="75px" version="1.1" style="shape-rendering:geometricPrecision; text-rendering:geometricPrecision; image-rendering:optimizeQuality; fill-rule:evenodd; clip-rule:evenodd"
viewBox="0 0 75 75"
 xmlns:xlink="http://www.w3.org/1999/xlink">
 <defs>
  <style type="text/css">
   <![CDATA[
    .fil0 {fill:#204392}
   ]]>
  </style>
 </defs>
 <g id="Layer_x0020_1">
  <metadata id="CorelCorpID_0Corel-Layer"/>
  <path id="iconmonstr-angel-down-circle-thin.svg" class="fil0" d="M37.5 75c20.7,0 37.5,-16.8 37.5,-37.5 0,-20.7 -16.8,-37.5 -37.5,-37.5 -20.7,0 -37.5,16.8 -37.5,37.5 0,20.7 16.8,37.5 37.5,37.5zm0 -3.13c18.97,0 34.37,-15.4 34.37,-34.37 0,-18.97 -15.4,-34.37 -34.37,-34.37 -18.97,0 -34.37,15.4 -34.37,34.37 0,18.97 15.4,34.37 34.37,34.37zm16.4 -24.99l-16.4 -20.13 -16.45 20.13 -2.3 -2.12 18.75 -22.88 18.75 22.92 -2.35 2.07 0 0.01z"/>
 </g>
</svg>
