<?xml version="1.0" encoding="UTF-8"?>
<!DOCTYPE svg PUBLIC "-//W3C//DTD SVG 1.1//EN" "http://www.w3.org/Graphics/SVG/1.1/DTD/svg11.dtd">
<!-- Creator: CorelDRAW 2018 (64-Bit) -->
<svg xmlns="http://www.w3.org/2000/svg" xml:space="preserve" width="75px" height="75px" version="1.1" style="shape-rendering:geometricPrecision; text-rendering:geometricPrecision; image-rendering:optimizeQuality; fill-rule:evenodd; clip-rule:evenodd"
viewBox="0 0 75 75"
 xmlns:xlink="http://www.w3.org/1999/xlink">
 <defs>
  <style type="text/css">
   <![CDATA[
    .fil0 {fill:#204392}
   ]]>
  </style>
 </defs>
 <g id="Layer_x0020_1">
  <metadata id="CorelCorpID_0Corel-Layer"/>
  <path id="iconmonstr-linkedin-3.svg" class="fil0" d="M59.38 0l-43.76 0c-8.62,0 -15.62,7 -15.62,15.62l0 43.76c0,8.62 7,15.62 15.62,15.62l43.76 0c8.63,0 15.62,-7 15.62,-15.62l0 -43.76c0,-8.62 -6.99,-15.62 -15.62,-15.62zm-34.38 59.38l-9.38 0 0 -34.38 9.38 0 0 34.38zm-4.69 -38.34c-3.02,0 -5.47,-2.47 -5.47,-5.51 0,-3.05 2.45,-5.52 5.47,-5.52 3.02,0 5.47,2.47 5.47,5.52 0,3.04 -2.45,5.51 -5.47,5.51zm42.19 38.34l-9.38 0 0 -17.52c0,-10.52 -12.49,-9.72 -12.49,0l0 17.52 -9.38 0 0 -34.38 9.38 0 0 5.52c4.36,-8.08 21.87,-8.68 21.87,7.73l0 21.13z"/>
 </g>
</svg>
