<?xml version="1.0" encoding="UTF-8"?>
<!DOCTYPE svg PUBLIC "-//W3C//DTD SVG 1.1//EN" "http://www.w3.org/Graphics/SVG/1.1/DTD/svg11.dtd">
<!-- Creator: CorelDRAW 2018 (64-Bit) -->
<svg xmlns="http://www.w3.org/2000/svg" xml:space="preserve" width="75px" height="75px" version="1.1" style="shape-rendering:geometricPrecision; text-rendering:geometricPrecision; image-rendering:optimizeQuality; fill-rule:evenodd; clip-rule:evenodd"
viewBox="0 0 75 75"
 xmlns:xlink="http://www.w3.org/1999/xlink">
 <defs>
  <style type="text/css">
   <![CDATA[
    .fil0 {fill:#204392}
   ]]>
  </style>
 </defs>
 <g id="Layer_x0020_1">
  <metadata id="CorelCorpID_0Corel-Layer"/>
  <path id="iconmonstr-location-19.svg" class="fil0" d="M37.5 0c-9.84,0 -18.75,7.98 -18.75,17.82 0,9.84 8.13,21.58 18.75,38.43 10.62,-16.85 18.75,-28.59 18.75,-38.43 0,-9.84 -8.91,-17.82 -18.75,-17.82zm0 25c-3.45,0 -6.25,-2.8 -6.25,-6.25 0,-3.45 2.8,-6.25 6.25,-6.25 3.45,0 6.25,2.8 6.25,6.25 0,3.45 -2.8,6.25 -6.25,6.25zm25 37.5c0,6.9 -11.19,12.5 -25,12.5 -13.81,0 -25,-5.6 -25,-12.5 0,-5.01 5.9,-9.31 14.4,-11.31l3.61 5.7c-1.26,0.21 -2.52,0.42 -3.69,0.76 -10.35,2.96 -10.79,6.59 -0.06,9.69 6.52,1.89 14.93,1.89 21.48,0 11.31,-3.27 9.89,-7.11 -0.84,-9.9 -0.92,-0.24 -1.94,-0.37 -2.92,-0.53l3.61 -5.72c8.51,2 14.41,6.3 14.41,11.31l0 0z"/>
 </g>
</svg>
