<?xml version="1.0" encoding="UTF-8"?>
<!DOCTYPE svg PUBLIC "-//W3C//DTD SVG 1.1//EN" "http://www.w3.org/Graphics/SVG/1.1/DTD/svg11.dtd">
<!-- Creator: CorelDRAW 2018 (64-Bit) -->
<svg xmlns="http://www.w3.org/2000/svg" xml:space="preserve" width="75px" height="75px" version="1.1" style="shape-rendering:geometricPrecision; text-rendering:geometricPrecision; image-rendering:optimizeQuality; fill-rule:evenodd; clip-rule:evenodd"
viewBox="0 0 75 75"
 xmlns:xlink="http://www.w3.org/1999/xlink">
 <defs>
  <style type="text/css">
   <![CDATA[
    .fil0 {fill:#204392}
   ]]>
  </style>
 </defs>
 <g id="Layer_x0020_1">
  <metadata id="CorelCorpID_0Corel-Layer"/>
  <path id="iconmonstr-skype-1.svg" class="fil0" d="M71.84 43.64c4.24,-24.26 -16.93,-45.03 -40.79,-40.56 -18.19,-11.12 -39.07,10.08 -27.92,28.22 -4.34,24.21 16.82,45.25 40.88,40.66 18.23,11.05 39.04,-10.19 27.83,-28.32zm-33.14 18.41c-9.94,0 -19.93,-4.52 -19.88,-12.31 0.02,-2.35 1.76,-4.51 4.09,-4.51 5.85,0 5.8,8.73 15.12,8.73 6.54,0 8.77,-3.58 8.77,-6.07 0,-9.02 -28.26,-3.49 -28.26,-20.45 0,-9.18 7.5,-15.5 19.31,-14.81 11.25,0.66 17.85,5.63 18.49,10.27 0.31,3.04 -1.7,5.4 -5.19,5.4 -5.08,0 -5.6,-6.82 -14.37,-6.82 -3.96,0 -7.29,1.65 -7.29,5.24 0,7.48 28.09,3.14 28.09,19.61 0,9.49 -7.57,15.72 -18.88,15.72l0 0z"/>
 </g>
</svg>
