<?xml version="1.0" encoding="UTF-8"?>
<!DOCTYPE svg PUBLIC "-//W3C//DTD SVG 1.1//EN" "http://www.w3.org/Graphics/SVG/1.1/DTD/svg11.dtd">
<!-- Creator: CorelDRAW 2018 (64-Bit) -->
<svg xmlns="http://www.w3.org/2000/svg" xml:space="preserve" width="75px" height="75px" version="1.1" style="shape-rendering:geometricPrecision; text-rendering:geometricPrecision; image-rendering:optimizeQuality; fill-rule:evenodd; clip-rule:evenodd"
viewBox="0 0 75 75"
 xmlns:xlink="http://www.w3.org/1999/xlink">
 <defs>
  <style type="text/css">
   <![CDATA[
    .fil0 {fill:#204392}
   ]]>
  </style>
 </defs>
 <g id="Layer_x0020_1">
  <metadata id="CorelCorpID_0Corel-Layer"/>
  <path id="iconmonstr-whatsapp-1.svg" class="fil0" d="M0.18 75l5.27 -19.26c-3.25,-5.64 -4.96,-12.03 -4.96,-18.58 0.01,-20.49 16.68,-37.16 37.17,-37.16 9.94,0 19.27,3.87 26.29,10.9 7.01,7.02 10.88,16.36 10.87,26.29 -0.01,20.5 -16.68,37.17 -37.16,37.17 -6.22,-0.01 -12.35,-1.57 -17.78,-4.53l-19.7 5.17zm20.61 -11.9c5.24,3.11 10.24,4.98 16.85,4.98 17.03,0 30.9,-13.86 30.91,-30.89 0,-17.07 -13.8,-30.91 -30.88,-30.92 -17.04,0 -30.9,13.86 -30.91,30.89 0,6.95 2.04,12.16 5.46,17.61l-3.12 11.4 11.69 -3.07 0 0zm35.59 -17.07c-0.23,-0.39 -0.85,-0.62 -1.78,-1.09 -0.93,-0.46 -5.5,-2.71 -6.35,-3.02 -0.85,-0.31 -1.47,-0.46 -2.09,0.47 -0.62,0.92 -2.4,3.02 -2.94,3.64 -0.54,0.62 -1.09,0.69 -2.02,0.23 -0.92,-0.47 -3.92,-1.45 -7.47,-4.61 -2.75,-2.46 -4.62,-5.5 -5.16,-6.44 -0.54,-0.93 -0.06,-1.43 0.4,-1.89 0.42,-0.42 0.93,-1.08 1.4,-1.63 0.47,-0.54 0.62,-0.92 0.94,-1.54 0.31,-0.62 0.15,-1.17 -0.08,-1.63 -0.24,-0.47 -2.09,-5.04 -2.86,-6.9 -0.76,-1.81 -1.53,-1.56 -2.09,-1.59l-1.79 -0.03c-0.61,0 -1.62,0.23 -2.47,1.16 -0.85,0.93 -3.25,3.18 -3.25,7.75 0,4.57 3.33,8.99 3.79,9.6 0.46,0.62 6.54,10.01 15.86,14.03 2.22,0.95 3.95,1.53 5.29,1.95 2.23,0.71 4.25,0.61 5.85,0.37 1.79,-0.26 5.5,-2.24 6.27,-4.41 0.78,-2.18 0.78,-4.04 0.54,-4.42l0.01 0z"/>
 </g>
</svg>
